# xmcd
#
# Track frame offsets:
#	150
#	21255
#	32460
#	51180
#	75460
#	89057
#	114455
#	134200
#	149315
#	166625
#	181700
#	194402
#	228272
#	241062
#	273377
#
# Disc length: 4053
#
# Revision: 3
# Processed by: cddbd v1.5.1PL0 Copyright (c) Steve Scherf et al.
# Submitted via: FreeRIP 2.92 
# Normalized: r2:TSWAP
#
DISCID=c30fd30f
DTITLE=Various Artist - More Essential Jazz - 15 Classic Jazz Tracks
DYEAR=1996
DGENRE=Jazz
TTITLE0=Duke Ellington - Take the 'A' Train
TTITLE1=Nat King Cole - Straighten Up And Fly Right
TTITLE2=Lee Morgan - The Sidewinder
TTITLE3=Dexter Gordon - I Guess I'll Hang My Tears Out To Dry
TTITLE4=Charlie Parker - Laura
TTITLE5=Stephane Grapelli/George Shearing - The Folks Who Live On The Hill
TTITLE6=Dizzy Gillespie - They Can't Take That Away From Me
TTITLE7=Quincy Jones - Lullaby Of Birdland
TTITLE8=Count Basie - April in Paris
TTITLE9=Peggy Lee - Fever
TTITLE10=Erroll Garner - Misty
TTITLE11=Oscar Peterson - On Green Dolphin St.
TTITLE12=Miles Davis - Nuit Sur Les Champs Élysées (alternate take) (from "Ascenseur Pour L'Échafaud")
TTITLE13=Herbie Hancock - Watermelon Man
TTITLE14=Hank Mobley - The More I See You
EXTD=YEAR: 1996
EXTT0=
EXTT1=
EXTT2=
EXTT3=
EXTT4=
EXTT5=
EXTT6=
EXTT7=
EXTT8=
EXTT9=
EXTT10=
EXTT11=
EXTT12=
EXTT13=
EXTT14=
PLAYORDER=
